<?xml version="1.0" standalone="no"?>
<!DOCTYPE svg PUBLIC "-//W3C//DTD SVG 20010904//EN"
 "http://www.w3.org/TR/2001/REC-SVG-20010904/DTD/svg10.dtd">
<svg version="1.0" xmlns="http://www.w3.org/2000/svg"
 width="256.000000pt" height="256.000000pt" viewBox="0 0 256.000000 256.000000"
 preserveAspectRatio="xMidYMid meet">

<g transform="translate(0.000000,256.000000) scale(0.100000,-0.100000)"
fill="#000000" stroke="none">
<path d="M1652 2131 c-119 -30 -215 -83 -302 -170 -92 -91 -133 -168 -155
-291 -8 -47 -19 -102 -25 -123 l-11 -37 -42 29 c-55 40 -154 76 -248 91 -91
15 -191 2 -273 -34 l-54 -24 -24 25 c-40 43 -78 57 -153 57 -79 -1 -151 -27
-197 -71 -43 -41 -36 -50 45 -55 55 -4 86 -12 125 -33 73 -40 75 -43 48 -100
-13 -28 -27 -66 -31 -85 -4 -19 -20 -50 -36 -68 -38 -44 -38 -84 0 -123 16
-16 36 -29 44 -29 8 0 19 -18 26 -42 18 -58 108 -146 191 -185 163 -76 321
-79 467 -8 82 40 160 119 196 198 26 56 47 60 92 17 20 -19 46 -33 71 -37 21
-3 50 -16 64 -29 38 -35 133 -74 203 -84 79 -12 175 3 245 36 52 26 147 110
193 172 23 32 25 33 52 19 92 -48 152 84 151 333 -2 310 -103 527 -288 614
-119 56 -244 69 -374 37z m257 -32 c230 -53 355 -250 368 -584 5 -141 -10
-249 -45 -309 -22 -37 -55 -42 -60 -8 -4 25 -37 31 -46 7 -3 -8 -17 -15 -30
-15 -49 0 -74 80 -56 180 12 69 8 85 -20 70 -28 -15 -47 -2 -62 42 -7 22 -17
41 -22 41 -5 1 -20 -18 -33 -43 -55 -107 -150 -137 -172 -54 -10 38 -32 37
-44 -1 -25 -80 -105 -112 -146 -59 -12 15 -21 35 -21 46 0 13 -6 18 -16 16
-11 -2 -22 -21 -29 -53 -14 -52 -52 -95 -85 -95 -22 0 -50 26 -50 46 0 8 -7
14 -15 14 -21 0 -19 -49 3 -74 10 -12 26 -48 36 -81 10 -33 25 -72 32 -87 9
-18 11 -28 4 -28 -15 0 -60 46 -60 61 0 8 -10 9 -31 5 -23 -4 -35 -1 -54 18
-46 46 -75 222 -57 343 7 42 17 82 22 87 6 6 10 29 10 53 0 59 34 155 77 220
71 108 207 202 343 237 64 17 196 20 259 5z m-1460 -497 c58 -29 61 -46 20
-88 l-36 -36 -41 30 c-37 26 -72 39 -157 57 -28 6 -28 7 -10 18 71 40 168 48
224 19z m451 -13 c86 -19 163 -54 209 -95 45 -40 46 -43 48 -105 2 -35 8 -92
15 -126 11 -57 10 -64 -8 -84 -52 -59 -130 -57 -122 3 6 39 -13 46 -52 18 -43
-31 -102 -37 -136 -15 -23 15 -26 22 -20 55 3 21 3 41 -1 43 -5 3 -37 -13 -72
-34 -100 -61 -163 -47 -146 31 11 52 -15 47 -69 -14 -44 -50 -55 -57 -81 -54
-22 2 -31 9 -33 26 -2 12 -12 27 -23 32 -26 14 -24 34 10 107 48 100 142 179
249 208 57 16 171 18 232 4z m1048 -169 c7 -11 21 -20 32 -20 17 0 20 -7 20
-41 0 -35 -2 -40 -15 -29 -8 7 -20 8 -27 4 -7 -5 -21 -7 -30 -6 -32 6 -58 -17
-58 -49 0 -43 17 -69 44 -69 29 0 53 27 58 64 5 46 28 45 28 -1 0 -43 28 -96
60 -113 20 -11 20 -12 -20 -60 -87 -104 -208 -157 -336 -147 -143 11 -249 85
-294 203 -26 70 -25 82 5 90 25 6 85 66 85 85 0 6 15 1 34 -10 55 -34 109 -25
152 25 20 24 21 24 53 8 52 -26 98 -13 146 40 22 25 42 45 45 46 3 0 11 -9 18
-20z m-1558 -199 c0 -26 23 -42 68 -48 33 -4 44 -1 74 26 l36 31 30 -30 c38
-38 75 -39 142 -5 46 23 49 24 55 6 17 -55 101 -85 165 -59 33 14 35 13 58
-14 37 -44 102 -38 160 15 22 20 22 20 37 1 20 -25 12 -56 -32 -121 -43 -66
-101 -114 -179 -150 -53 -25 -70 -28 -169 -28 -95 0 -120 4 -185 28 -124 45
-207 120 -230 209 -8 28 -16 38 -31 38 -21 0 -69 42 -69 60 0 14 46 60 60 60
5 0 10 -8 10 -19z"/>
<path d="M1484 1249 c-32 -41 -22 -83 23 -100 35 -13 61 6 78 54 15 43 12 45
-47 53 -31 4 -47 2 -54 -7z"/>
<path d="M1727 1125 c-21 -7 -41 -16 -44 -18 -8 -9 7 -27 23 -27 8 0 14 -7 14
-15 0 -25 38 -55 68 -55 46 0 79 54 66 107 -5 19 -13 23 -48 23 -22 -1 -58 -7
-79 -15z m93 -39 c0 -13 -6 -29 -14 -35 -20 -16 -46 -3 -46 24 0 22 4 25 53
34 4 0 7 -10 7 -23z"/>
<path d="M613 1115 c-23 -16 -31 -58 -15 -82 26 -41 104 -29 110 17 2 14 8 29
13 35 16 17 9 35 -13 34 -13 0 -34 3 -48 6 -15 4 -34 0 -47 -10z"/>
<path d="M992 1048 c-20 -20 -15 -76 7 -88 27 -14 58 -13 70 3 45 54 61 76 61
84 0 14 -124 15 -138 1z"/>
<path d="M787 983 c-13 -12 -7 -51 11 -74 36 -44 122 -18 122 37 0 34 -17 38
-32 7 -17 -36 -61 -40 -66 -6 -4 24 -25 46 -35 36z"/>
<path d="M652 774 c-27 -19 -29 -44 -2 -44 11 0 20 5 20 10 0 6 7 10 15 10 8
0 15 -9 15 -20 0 -13 -10 -22 -36 -29 -40 -11 -63 -35 -64 -67 0 -42 50 -57
105 -32 21 9 28 9 35 -2 4 -7 15 -10 24 -7 13 5 16 22 16 81 0 69 -2 76 -26
95 -32 25 -71 27 -102 5z m50 -119 c0 -5 -5 -11 -11 -13 -6 -2 -11 4 -11 13 0
9 5 15 11 13 6 -2 11 -8 11 -13z"/>
<path d="M1742 763 l-27 -28 25 -3 c13 -2 26 1 28 7 6 19 32 12 32 -8 0 -14
-12 -23 -42 -33 -32 -10 -45 -20 -52 -41 -19 -54 31 -83 96 -56 24 10 31 10
38 -1 4 -7 15 -10 24 -7 13 5 16 22 16 81 0 69 -2 76 -26 95 -37 29 -79 27
-112 -6z m63 -102 c7 -12 -12 -24 -25 -16 -11 7 -4 25 10 25 5 0 11 -4 15 -9z"/>
<path d="M1227 763 c-3 -5 17 -8 44 -8 27 0 49 3 49 8 0 4 -20 7 -44 7 -25 0
-47 -3 -49 -7z"/>
<path d="M1608 759 c-37 -21 -8 -69 41 -69 37 0 56 22 42 48 -17 31 -51 40
-83 21z"/>
<path d="M1240 733 c-14 -7 -20 -13 -14 -13 7 0 14 -9 17 -20 3 -11 1 -20 -4
-20 -5 0 -9 -4 -9 -10 0 -6 9 -6 25 0 14 5 30 8 37 6 7 -1 10 -1 6 1 -14 8 -8
32 10 42 15 9 13 10 -10 11 -14 0 -28 4 -30 8 -1 4 -14 2 -28 -5z m45 -23 c-3
-5 -10 -10 -16 -10 -5 0 -9 5 -9 10 0 6 7 10 16 10 8 0 12 -4 9 -10z"/>
<path d="M814 726 c-3 -7 -4 -42 -2 -77 3 -58 5 -64 26 -67 19 -3 22 1 22 33
0 29 3 36 18 33 10 -2 18 -14 20 -31 4 -29 6 -31 55 -41 l27 -6 0 69 c0 82
-11 97 -70 87 -25 -4 -40 -2 -40 4 0 15 -50 12 -56 -4z"/>
<path d="M1012 663 c3 -65 6 -78 21 -81 13 -3 17 3 17 27 0 16 5 33 10 36 16
10 40 -14 40 -40 0 -19 6 -24 36 -27 45 -5 49 4 38 85 l-9 62 -47 0 c-25 0
-50 4 -54 8 -4 4 -18 7 -31 7 -23 0 -24 -2 -21 -77z"/>
<path d="M1510 716 c-32 -22 -37 -22 -62 -10 -42 22 -76 1 -43 -26 19 -16 19
-39 0 -64 -21 -28 -19 -41 11 -55 15 -6 28 -10 29 -9 1 2 8 14 15 27 l12 23
27 -26 c27 -25 28 -26 44 -8 15 16 15 21 2 39 -12 18 -11 24 12 58 25 36 25
38 6 56 -18 19 -19 19 -53 -5z"/>
<path d="M1960 693 c-30 -11 -50 -37 -50 -63 0 -67 110 -78 139 -14 15 34 14
41 -9 64 -19 19 -49 24 -80 13z m30 -78 c0 -17 -2 -18 -24 -9 -23 9 -20 24 4
24 11 0 20 -7 20 -15z"/>
<path d="M1610 651 c0 -10 -3 -27 -6 -35 -4 -12 4 -20 30 -31 19 -8 38 -15 41
-15 3 0 5 21 3 48 -3 45 -4 47 -35 50 -27 3 -33 0 -33 -17z"/>
<path d="M1258 629 c-8 -5 5 -9 35 -9 27 0 46 4 42 9 -7 12 -59 11 -77 0z"/>
<path d="M1275 599 l-20 -8 20 -1 c17 -2 16 -3 -5 -10 l-25 -8 25 -2 c23 -1
23 -2 5 -10 -17 -7 -17 -9 -2 -9 9 -1 17 -6 17 -12 0 -6 -6 -9 -14 -6 -8 3
-19 0 -25 -6 -8 -10 1 -13 40 -12 30 0 49 4 49 12 0 6 -9 9 -20 6 -11 -3 -20
0 -20 6 0 6 5 11 11 11 6 0 16 6 23 13 23 22 -23 50 -59 36z"/>
<path d="M1227 553 c-4 -3 -7 -11 -7 -17 0 -6 5 -5 12 2 6 6 9 14 7 17 -3 3
-9 2 -12 -2z"/>
<path d="M1323 412 c-28 -4 -29 -18 -4 -31 14 -8 22 -7 32 5 15 19 2 31 -28
26z"/>
<path d="M1675 400 c-3 -6 1 -7 9 -4 18 7 21 14 7 14 -6 0 -13 -4 -16 -10z"/>
<path d="M1051 384 c0 -11 3 -14 6 -6 3 7 2 16 -1 19 -3 4 -6 -2 -5 -13z"/>
<path d="M1140 381 c0 -6 4 -13 10 -16 6 -3 7 1 4 9 -7 18 -14 21 -14 7z"/>
<path d="M1530 381 c0 -6 4 -13 10 -16 6 -3 7 1 4 9 -7 18 -14 21 -14 7z"/>
</g>
</svg>
